<svg width="59" height="55" viewBox="0 0 59 55" fill="none" xmlns="http://www.w3.org/2000/svg">
<g clip-path="url(#clip0_1728_36754)">
<path d="M50.5734 36.6667C51.518 35.6811 52.1405 34.4565 52.3651 33.1418C52.5897 31.8271 52.4067 30.4789 51.8385 29.2609C51.2702 28.0429 50.3411 27.0077 49.1641 26.281C47.9871 25.5543 46.6128 25.1675 45.2084 25.1675C43.8039 25.1675 42.4296 25.5543 41.2526 26.281C40.0756 27.0077 39.1465 28.0429 38.5783 29.2609C38.01 30.4789 37.8271 31.8271 38.0516 33.1418C38.2762 34.4565 38.8987 35.6811 39.8434 36.6667C38.2994 36.7583 36.8116 37.2498 35.5417 38.0875C36.2489 37.0493 36.6478 35.8496 36.6966 34.6145C36.7454 33.3795 36.4422 32.1548 35.8189 31.0694C35.1956 29.9839 34.2753 29.0779 33.1548 28.4466C32.0343 27.8154 30.755 27.4822 29.4517 27.4822C28.1484 27.4822 26.8691 27.8154 25.7486 28.4466C24.6281 29.0779 23.7078 29.9839 23.0845 31.0694C22.4612 32.1548 22.158 33.3795 22.2068 34.6145C22.2555 35.8496 22.6545 37.0493 23.3617 38.0875C22.1195 37.2654 20.6672 36.7746 19.1567 36.6667C20.1014 35.6811 20.7238 34.4565 20.9484 33.1418C21.173 31.8271 20.99 30.4789 20.4218 29.2609C19.8535 28.0429 18.9245 27.0077 17.7474 26.281C16.5704 25.5543 15.1962 25.1675 13.7917 25.1675C12.3872 25.1675 11.0129 25.5543 9.83593 26.281C8.65892 27.0077 7.72984 28.0429 7.16159 29.2609C6.59334 30.4789 6.41039 31.8271 6.63498 33.1418C6.85956 34.4565 7.48201 35.6811 8.42668 36.6667C6.2768 36.795 4.25958 37.6965 2.78657 39.187C1.31355 40.6775 0.495757 42.6448 0.500017 44.6875V51.5625C0.500017 51.8664 0.627323 52.1578 0.853929 52.3727C1.08054 52.5876 1.38788 52.7083 1.70835 52.7083H16.2084V53.8542C16.2084 54.158 16.3357 54.4495 16.5623 54.6644C16.7889 54.8793 17.0962 55 17.4167 55H41.5834C41.9038 55 42.2112 54.8793 42.4378 54.6644C42.6644 54.4495 42.7917 54.158 42.7917 53.8542V52.7083H57.2917C57.6122 52.7083 57.9195 52.5876 58.1461 52.3727C58.3727 52.1578 58.5 51.8664 58.5 51.5625V44.6875C58.5043 42.6448 57.6865 40.6775 56.2135 39.187C54.7405 37.6965 52.7232 36.795 50.5734 36.6667ZM45.2084 27.5C46.1643 27.5 47.0988 27.7688 47.8936 28.2724C48.6885 28.776 49.308 29.4919 49.6738 30.3294C50.0396 31.1668 50.1353 32.0884 49.9488 32.9775C49.7623 33.8666 49.302 34.6832 48.626 35.3242C47.9501 35.9652 47.0889 36.4017 46.1513 36.5786C45.2137 36.7554 44.2419 36.6647 43.3587 36.3178C42.4755 35.9709 41.7207 35.3834 41.1896 34.6297C40.6585 33.876 40.375 32.9898 40.375 32.0833C40.375 30.8677 40.8842 29.702 41.7907 28.8424C42.6971 27.9829 43.9265 27.5 45.2084 27.5V27.5ZM29.5 29.7917C30.456 29.7917 31.3904 30.0605 32.1853 30.5641C32.9801 31.0677 33.5996 31.7835 33.9654 32.621C34.3313 33.4585 34.427 34.3801 34.2405 35.2691C34.054 36.1582 33.5937 36.9749 32.9177 37.6159C32.2417 38.2569 31.3805 38.6934 30.443 38.8703C29.5054 39.0471 28.5336 38.9563 27.6504 38.6094C26.7672 38.2625 26.0123 37.6751 25.4812 36.9213C24.9502 36.1676 24.6667 35.2815 24.6667 34.375C24.6667 33.1594 25.1759 31.9936 26.0823 31.1341C26.9888 30.2745 28.2181 29.7917 29.5 29.7917V29.7917ZM13.7917 27.5C14.7476 27.5 15.6821 27.7688 16.4769 28.2724C17.2718 28.776 17.8913 29.4919 18.2571 30.3294C18.6229 31.1668 18.7186 32.0884 18.5321 32.9775C18.3457 33.8666 17.8853 34.6832 17.2094 35.3242C16.5334 35.9652 15.6722 36.4017 14.7346 36.5786C13.797 36.7554 12.8252 36.6647 11.942 36.3178C11.0589 35.9709 10.304 35.3834 9.77291 34.6297C9.24182 33.876 8.95835 32.9898 8.95835 32.0833C8.95835 30.8677 9.46758 29.702 10.374 28.8424C11.2804 27.9829 12.5098 27.5 13.7917 27.5V27.5ZM2.91668 50.4167V44.6875C2.91668 43.168 3.55321 41.7108 4.68625 40.6364C5.81928 39.5619 7.356 38.9583 8.95835 38.9583C19.3863 38.9583 19.6642 38.7635 21.3679 39.5885C19.8372 40.2033 18.5315 41.2322 17.6138 42.5466C16.6962 43.8611 16.2073 45.4028 16.2084 46.9792V50.4167H2.91668ZM40.375 52.7083H18.625V46.9792C18.625 45.4597 19.2615 44.0024 20.3946 42.928C21.5276 41.8536 23.0643 41.25 24.6667 41.25H34.3334C35.9357 41.25 37.4724 41.8536 38.6055 42.928C39.7385 44.0024 40.375 45.4597 40.375 46.9792V52.7083ZM56.0834 50.4167H42.7917V46.9792C42.7927 45.4028 42.3039 43.8611 41.3862 42.5466C40.4686 41.2322 39.1628 40.2033 37.6321 39.5885C39.3963 38.7406 39.6984 38.9583 50.0417 38.9583C51.644 38.9583 53.1808 39.5619 54.3138 40.6364C55.4468 41.7108 56.0834 43.168 56.0834 44.6875V50.4167Z" fill="#00539F"/>
<path d="M7.1095 25.0365C7.88284 25.4833 8.02784 25.2083 12.8733 22.9167H31.9166C32.2371 22.9167 32.5444 22.7959 32.771 22.5811C32.9976 22.3662 33.1249 22.0747 33.1249 21.7708V18.3333H46.1266C51.0808 20.6823 51.1412 20.8885 51.8903 20.4531C52.6395 20.0177 52.4583 20.9 52.4583 1.14583C52.4583 0.841939 52.3309 0.550492 52.1043 0.335607C51.8777 0.120721 51.5704 0 51.2499 0L27.0833 0C26.7628 0 26.4554 0.120721 26.2288 0.335607C26.0022 0.550492 25.8749 0.841939 25.8749 1.14583V4.58333H7.74992C7.42945 4.58333 7.1221 4.70405 6.8955 4.91894C6.66889 5.13383 6.54159 5.42527 6.54159 5.72917C6.54159 25.4719 6.29992 24.5552 7.1095 25.0365ZM28.2916 2.29167H50.0416V17.6229C46.6703 16.0417 46.8033 16.0417 46.4166 16.0417H28.2916V2.29167ZM8.95825 6.875H25.8749V9.16667H12.5833C12.2628 9.16667 11.9554 9.28739 11.7288 9.50227C11.5022 9.71716 11.3749 10.0086 11.3749 10.3125C11.3749 10.6164 11.5022 10.9078 11.7288 11.1227C11.9554 11.3376 12.2628 11.4583 12.5833 11.4583H25.8749V17.1875C25.8749 17.4914 26.0022 17.7828 26.2288 17.9977C26.4554 18.2126 26.7628 18.3333 27.0833 18.3333H30.7083V20.625C11.0003 20.625 12.4141 20.625 12.0395 20.751L8.95825 22.2062V6.875Z" fill="#00539F"/>
<path d="M31.9166 6.87492H46.4166C46.7371 6.87492 47.0444 6.7542 47.271 6.53931C47.4976 6.32443 47.6249 6.03298 47.6249 5.72909C47.6249 5.42519 47.4976 5.13374 47.271 4.91886C47.0444 4.70397 46.7371 4.58325 46.4166 4.58325H31.9166C31.5961 4.58325 31.2888 4.70397 31.0622 4.91886C30.8356 5.13374 30.7083 5.42519 30.7083 5.72909C30.7083 6.03298 30.8356 6.32443 31.0622 6.53931C31.2888 6.7542 31.5961 6.87492 31.9166 6.87492Z" fill="#00539F"/>
<path d="M31.9166 12.6042H41.5833C41.9037 12.6042 42.2111 12.4834 42.4377 12.2686C42.6643 12.0537 42.7916 11.7622 42.7916 11.4583C42.7916 11.1544 42.6643 10.863 42.4377 10.6481C42.2111 10.4332 41.9037 10.3125 41.5833 10.3125H31.9166C31.5961 10.3125 31.2888 10.4332 31.0622 10.6481C30.8356 10.863 30.7083 11.1544 30.7083 11.4583C30.7083 11.7622 30.8356 12.0537 31.0622 12.2686C31.2888 12.4834 31.5961 12.6042 31.9166 12.6042Z" fill="#00539F"/>
<path d="M22.25 17.1874C22.5705 17.1874 22.8778 17.0667 23.1044 16.8518C23.331 16.6369 23.4583 16.3455 23.4583 16.0416C23.4583 15.7377 23.331 15.4462 23.1044 15.2314C22.8778 15.0165 22.5705 14.8958 22.25 14.8958H12.5833C12.2629 14.8958 11.9555 15.0165 11.7289 15.2314C11.5023 15.4462 11.375 15.7377 11.375 16.0416C11.375 16.3455 11.5023 16.6369 11.7289 16.8518C11.9555 17.0667 12.2629 17.1874 12.5833 17.1874H22.25Z" fill="#00539F"/>
</g>
<defs>
<clipPath id="clip0_1728_36754">
<rect width="58" height="55" fill="white" transform="translate(0.5)"/>
</clipPath>
</defs>
</svg>
