<svg width="59" height="54" viewBox="0 0 59 54" fill="none" xmlns="http://www.w3.org/2000/svg">
<path d="M29.5001 16.125C29.1796 16.125 28.8723 15.9977 28.6457 15.7711C28.4191 15.5445 28.2918 15.2372 28.2918 14.9167C28.2918 14.5962 28.1645 14.2889 27.9378 14.0623C27.7112 13.8357 27.4039 13.7084 27.0834 13.7084C25.0776 13.7084 25.6213 17.3334 28.2918 18.3242C28.2918 18.6447 28.4191 18.952 28.6457 19.1786C28.8723 19.4052 29.1796 19.5325 29.5001 19.5325C29.8206 19.5325 30.1279 19.4052 30.3545 19.1786C30.5811 18.952 30.7084 18.6447 30.7084 18.3242C31.5076 18.0342 32.1794 17.4726 32.6064 16.7375C33.0335 16.0024 33.1886 15.1406 33.0446 14.3027C32.9007 13.4649 32.4668 12.7043 31.8189 12.1539C31.171 11.6035 30.3502 11.2983 29.5001 11.2917C29.2611 11.2917 29.0275 11.2208 28.8288 11.0881C28.6301 10.9553 28.4752 10.7666 28.3837 10.5458C28.2923 10.325 28.2684 10.082 28.315 9.84763C28.3616 9.61323 28.4767 9.39793 28.6457 9.22894C28.8147 9.05995 29.03 8.94487 29.2644 8.89825C29.4988 8.85162 29.7417 8.87555 29.9625 8.96701C30.1833 9.05846 30.372 9.21334 30.5048 9.41205C30.6376 9.61076 30.7084 9.84438 30.7084 10.0834C30.7084 10.4038 30.8357 10.7112 31.0623 10.9378C31.2889 11.1644 31.5963 11.2917 31.9168 11.2917C33.9226 11.2917 33.3788 7.6667 30.7084 6.67586C30.7084 6.35539 30.5811 6.04805 30.3545 5.82144C30.1279 5.59484 29.8206 5.46753 29.5001 5.46753C29.1796 5.46753 28.8723 5.59484 28.6457 5.82144C28.4191 6.04805 28.2918 6.35539 28.2918 6.67586C27.4926 6.96584 26.8208 7.52746 26.3937 8.26256C25.9667 8.99766 25.8116 9.85947 25.9556 10.6973C26.0995 11.5352 26.5334 12.2958 27.1813 12.8462C27.8292 13.3966 28.65 13.7018 29.5001 13.7084C29.8206 13.7084 30.1279 13.8357 30.3545 14.0623C30.5811 14.2889 30.7084 14.5962 30.7084 14.9167C30.7084 15.2372 30.5811 15.5445 30.3545 15.7711C30.1279 15.9977 29.8206 16.125 29.5001 16.125Z" fill="#00B1AC"/>
<path d="M11.7254 11.6421C11.5263 11.841 11.4029 12.1031 11.3765 12.3832C11.35 12.6634 11.4221 12.944 11.5804 13.1767C11.7203 13.3822 11.9202 13.5396 12.1528 13.6274C12.3854 13.7152 12.6395 13.7291 12.8803 13.6672C13.1211 13.6053 13.3369 13.4706 13.4984 13.2815C13.6598 13.0924 13.759 12.8581 13.7824 12.6106C13.8058 12.363 13.7523 12.1143 13.6291 11.8983C13.5059 11.6823 13.3191 11.5096 13.0942 11.4037C12.8692 11.2978 12.6171 11.2638 12.3721 11.3065C12.1272 11.3492 11.9013 11.4663 11.7254 11.6421Z" fill="#00B1AC"/>
<path d="M11.3749 36.6667C10.18 36.6667 9.0119 37.0211 8.01835 37.685C7.0248 38.3488 6.25043 39.2924 5.79315 40.3964C5.33587 41.5003 5.21622 42.7151 5.44934 43.8871C5.68246 45.059 6.25788 46.1356 7.10282 46.9805C7.94776 47.8255 9.02428 48.4009 10.1963 48.634C11.3682 48.8671 12.583 48.7475 13.687 48.2902C14.7909 47.8329 15.7345 47.0585 16.3984 46.065C17.0623 45.0714 17.4166 43.9033 17.4166 42.7084C17.4166 41.915 17.2603 41.1294 16.9567 40.3964C16.6531 39.6634 16.208 38.9973 15.647 38.4363C15.086 37.8753 14.42 37.4303 13.687 37.1266C12.954 36.823 12.1683 36.6667 11.3749 36.6667ZM11.3749 46.3334C10.658 46.3334 9.95711 46.1208 9.36098 45.7225C8.76485 45.3242 8.30023 44.758 8.02586 44.0956C7.75149 43.4333 7.6797 42.7044 7.81957 42.0012C7.95945 41.298 8.30469 40.6521 8.81166 40.1452C9.31862 39.6382 9.96454 39.2929 10.6677 39.1531C11.3709 39.0132 12.0998 39.085 12.7621 39.3594C13.4245 39.6337 13.9907 40.0983 14.389 40.6945C14.7873 41.2906 14.9999 41.9915 14.9999 42.7084C14.9999 43.6698 14.618 44.5919 13.9382 45.2717C13.2584 45.9515 12.3363 46.3334 11.3749 46.3334Z" fill="#00B1AC"/>
<path d="M43.5287 32.6309L37.0521 27.6526L39.9883 24.5834H52.4583C52.7788 24.5834 53.0861 24.4561 53.3127 24.2295C53.5394 24.0029 53.6667 23.6956 53.6667 23.3751V1.62508C53.6667 1.30461 53.5394 0.997267 53.3127 0.770661C53.0861 0.544054 52.7788 0.416748 52.4583 0.416748H6.54167C6.2212 0.416748 5.91385 0.544054 5.68725 0.770661C5.46064 0.997267 5.33333 1.30461 5.33333 1.62508V23.3751C5.33333 23.6956 5.46064 24.0029 5.68725 24.2295C5.91385 24.4561 6.2212 24.5834 6.54167 24.5834H19.0117L21.96 27.6526L15.4712 32.6309C13.3283 31.7614 10.964 31.5976 8.72159 32.1635C6.47924 32.7293 4.47565 33.9952 3.00182 35.7774C1.52799 37.5596 0.660668 39.7652 0.52583 42.0739C0.390993 44.3826 0.995658 46.6742 2.252 48.6158C3.50835 50.5574 5.35095 52.048 7.5122 52.871C9.67344 53.694 12.0408 53.8066 14.2704 53.1924C16.5 52.5783 18.4757 51.2693 19.9107 49.4557C21.3457 47.6421 22.1651 45.4183 22.25 43.1072L29.5 35.5309L36.75 43.1072C36.8359 45.4186 37.6566 47.6423 39.0927 49.4555C40.5289 51.2686 42.5057 52.5766 44.736 53.1894C46.9663 53.8023 49.334 53.688 51.4949 52.8634C53.6559 52.0387 55.4977 50.5465 56.7526 48.6035C58.0076 46.6606 58.6104 44.3681 58.4734 42.0592C58.3365 39.7503 57.4669 37.5452 55.9911 35.7642C54.5153 33.9832 52.51 32.7192 50.2667 32.1557C48.0234 31.5923 45.6589 31.7587 43.5167 32.6309H43.5287ZM25.2829 36.4492L20.8967 31.5192L44.2658 13.5392C44.2658 17.4905 41.7525 19.2063 38.5987 22.5534L25.2829 36.4492ZM29.5 2.83341C30.9472 2.83495 32.3755 3.16139 33.6797 3.78865C34.9838 4.41591 36.1305 5.32799 37.0351 6.45758C37.9397 7.58717 38.5792 8.90546 38.9063 10.3152C39.2333 11.7249 39.2398 13.1901 38.925 14.6026L29.1133 22.1667C26.5496 22.1155 24.1112 21.0478 22.3346 19.1987C20.558 17.3496 19.5887 14.8705 19.64 12.3067C19.6913 9.74299 20.7589 7.3046 22.608 5.52801C24.4571 3.75141 26.9362 2.78214 29.5 2.83341ZM47.7942 22.1667C48.0111 21.3356 48.4457 20.5773 49.0531 19.9699C49.6605 19.3624 50.4188 18.9279 51.25 18.7109V22.1667H47.7942ZM51.25 6.28925C50.4188 6.07228 49.6605 5.63772 49.0531 5.03031C48.4457 4.4229 48.0111 3.66458 47.7942 2.83341H51.25V6.28925ZM45.3171 2.83341C45.5689 4.31537 46.2752 5.6824 47.3381 6.74532C48.401 7.80825 49.768 8.5145 51.25 8.76633V16.2338C49.768 16.4857 48.401 17.1919 47.3381 18.2548C46.2752 19.3178 45.5689 20.6848 45.3171 22.1667H42.3083C44.1692 20.2213 46.6825 17.998 46.6825 13.4788C46.6982 12.6453 46.6089 11.813 46.4167 11.0017C46.3678 10.8078 46.2716 10.6289 46.1367 10.4813C46.0017 10.3337 45.8322 10.2219 45.6433 10.1559C44.8458 9.86592 44.6646 10.1559 41.6196 12.5726C41.6196 10.6967 41.1828 8.84659 40.3439 7.16875C39.505 5.49091 38.2869 4.03144 36.7862 2.90591L45.3171 2.83341ZM22.25 22.1667H13.6829C13.4311 20.6848 12.7248 19.3178 11.6619 18.2548C10.599 17.1919 9.23195 16.4857 7.75 16.2338V8.76633C9.23195 8.5145 10.599 7.80825 11.6619 6.74532C12.7248 5.6824 13.4311 4.31537 13.6829 2.83341H22.25C20.7493 3.95894 19.5313 5.41841 18.6923 7.09625C17.8534 8.77409 17.4167 10.6242 17.4167 12.5001C17.4167 14.376 17.8534 16.2261 18.6923 17.9039C19.5313 19.5817 20.7493 21.0412 22.25 22.1667ZM11.2058 2.83341C10.9889 3.66458 10.5543 4.4229 9.94689 5.03031C9.33948 5.63772 8.58116 6.07228 7.75 6.28925V2.83341H11.2058ZM7.75 18.7109C8.58116 18.9279 9.33948 19.3624 9.94689 19.9699C10.5543 20.5773 10.9889 21.3356 11.2058 22.1667H7.75V18.7109ZM22.3587 24.5834H25.9837L23.9175 26.1663L22.3587 24.5834ZM19.8333 42.7084C19.8333 44.3813 19.3373 46.0167 18.4078 47.4076C17.4784 48.7986 16.1574 49.8827 14.6119 50.5229C13.0663 51.1631 11.3656 51.3306 9.72486 51.0042C8.0841 50.6779 6.57697 49.8723 5.39405 48.6894C4.21114 47.5064 3.40556 45.9993 3.07919 44.3586C2.75282 42.7178 2.92033 41.0171 3.56052 39.4716C4.20071 37.926 5.28483 36.605 6.6758 35.6756C8.06677 34.7462 9.7021 34.2501 11.375 34.2501C14.6012 34.2501 15.2779 35.8451 16.3775 34.9872L18.9754 33.0417L23.6033 38.2376C19.9421 42.0076 19.8333 41.923 19.8333 42.7084ZM35.3725 29.4167L38.1033 31.5313L33.7171 36.4492L31.1796 33.7909L35.3725 29.4167ZM47.625 51.1667C46.506 51.1668 45.3982 50.9449 44.3656 50.5138C43.3331 50.0827 42.3963 49.451 41.6096 48.6553C40.8229 47.8596 40.2019 46.9157 39.7826 45.8783C39.3632 44.8409 39.1539 43.7306 39.1667 42.6117C39.1667 41.9955 39.1667 42.1888 35.3967 38.1892L40.0246 33.0417C42.5862 35.0113 42.985 35.6034 43.8912 35.1684C45.0346 34.5874 46.295 34.274 47.5773 34.2519C48.8596 34.2298 50.1301 34.4996 51.2927 35.0408C52.4554 35.582 53.4798 36.3806 54.2884 37.376C55.097 38.3714 55.6686 39.5377 55.9601 40.7866C56.2516 42.0355 56.2552 43.3343 55.9708 44.5849C55.6864 45.8354 55.1213 47.0049 54.3183 48.0049C53.5154 49.0048 52.4955 49.8091 51.3359 50.3569C50.1763 50.9047 48.9074 51.1816 47.625 51.1667Z" fill="#00B1AC"/>
<path d="M47.6249 36.6667C46.43 36.6667 45.2619 37.0211 44.2683 37.685C43.2748 38.3488 42.5004 39.2924 42.0432 40.3964C41.5859 41.5003 41.4662 42.7151 41.6993 43.8871C41.9325 45.059 42.5079 46.1356 43.3528 46.9805C44.1978 47.8255 45.2743 48.4009 46.4462 48.634C47.6182 48.8671 48.833 48.7475 49.937 48.2902C51.0409 47.8329 51.9845 47.0585 52.6484 46.065C53.3122 45.0714 53.6666 43.9033 53.6666 42.7084C53.6666 41.1061 53.03 39.5693 51.897 38.4363C50.764 37.3033 49.2273 36.6667 47.6249 36.6667ZM47.6249 46.3334C46.908 46.3334 46.2071 46.1208 45.611 45.7225C45.0148 45.3242 44.5502 44.758 44.2759 44.0956C44.0015 43.4333 43.9297 42.7044 44.0696 42.0012C44.2094 41.298 44.5547 40.6521 45.0617 40.1452C45.5686 39.6382 46.2145 39.2929 46.9177 39.1531C47.6209 39.0132 48.3498 39.085 49.0121 39.3594C49.6745 39.6337 50.2407 40.0983 50.639 40.6945C51.0373 41.2906 51.2499 41.9915 51.2499 42.7084C51.2499 43.6698 50.868 44.5919 50.1882 45.2717C49.5084 45.9515 48.5863 46.3334 47.6249 46.3334Z" fill="#00B1AC"/>
<path d="M30.6117 27.7491C30.5031 27.494 30.31 27.284 30.0649 27.1543C29.8197 27.0247 29.5374 26.9833 29.2654 27.0372C28.9934 27.091 28.7481 27.2368 28.5708 27.45C28.3935 27.6633 28.295 27.931 28.2917 28.2083C28.2917 30.0933 31.373 29.5858 30.6117 27.7491Z" fill="#00B1AC"/>
</svg>
