<svg width="53" height="53" viewBox="0 0 53 53" fill="none" xmlns="http://www.w3.org/2000/svg">
<path d="M51.4167 23.8333V1.08333C51.4167 0.796015 51.3025 0.520465 51.0994 0.317301C50.8962 0.114137 50.6207 0 50.3333 0L13.5 0C13.2127 0 12.9371 0.114137 12.734 0.317301C12.5308 0.520465 12.4167 0.796015 12.4167 1.08333C12.4167 10.8875 12.4167 9.64167 12.4167 9.96667C10.4599 10.9652 8.81726 12.4852 7.67019 14.3588C6.52311 16.2323 5.91626 18.3865 5.91667 20.5833V31.5033L4.94167 31.9475C3.61725 32.5504 2.49425 33.5215 1.70667 34.7452C0.919101 35.9688 0.500214 37.3932 0.5 38.8483L0.5 50.9167C0.5 51.204 0.614137 51.4795 0.817301 51.6827C1.02047 51.8859 1.29602 52 1.58333 52C1.87065 52 2.1462 51.8859 2.34937 51.6827C2.55253 51.4795 2.66667 51.204 2.66667 50.9167V38.8483C2.66695 37.8088 2.96639 36.7912 3.52923 35.9172C4.09207 35.0432 4.89453 34.3495 5.84083 33.9192L6.85917 33.4533L5.0175 36.2375C4.87841 36.4451 4.81537 36.6944 4.83907 36.9432C4.86276 37.192 4.97172 37.4249 5.1475 37.6025L6.88083 39.3358L4.83333 47.4067C4.63833 48.1867 4.89833 48.2083 8.365 51.74C8.569 51.944 8.84567 52.0586 9.13417 52.0586C9.42266 52.0586 9.69934 51.944 9.90333 51.74C10.1073 51.536 10.2219 51.2593 10.2219 50.9708C10.2219 50.6823 10.1073 50.4057 9.90333 50.2017L7.08667 47.385C9.25333 38.5342 9.405 38.87 8.82 38.285L7.31417 36.6925L9.55667 33.3125L13.5 51.155C13.5632 51.4423 13.738 51.6928 13.9858 51.8512C14.2337 52.0097 14.5343 52.0632 14.8217 52C15.109 51.9368 15.3594 51.762 15.5179 51.5142C15.6764 51.2663 15.7299 50.9656 15.6667 50.6783L13.0017 38.8267L17.8333 35.9342L22.665 38.8267L20 50.6783C19.9687 50.8206 19.9657 50.9676 19.9913 51.111C20.0168 51.2545 20.0703 51.3914 20.1488 51.5142C20.2272 51.6369 20.3291 51.743 20.4486 51.8263C20.568 51.9097 20.7027 51.9687 20.845 52C20.9873 52.0313 21.1343 52.0343 21.2777 52.0087C21.4211 51.9832 21.5581 51.9297 21.6808 51.8512C21.8036 51.7728 21.9096 51.6709 21.993 51.5514C22.0764 51.432 22.1354 51.2973 22.1667 51.155L26.1317 33.3125L28.3742 36.6925L26.8358 38.2308C26.2292 38.8375 26.4567 38.8917 28.5692 47.3308L25.7525 50.1475C25.6515 50.2485 25.5714 50.3684 25.5167 50.5004C25.462 50.6324 25.4339 50.7738 25.4339 50.9167C25.4339 51.0595 25.462 51.201 25.5167 51.3329C25.5714 51.4649 25.6515 51.5848 25.7525 51.6858C25.8535 51.7868 25.9734 51.867 26.1054 51.9216C26.2374 51.9763 26.3788 52.0044 26.5217 52.0044C26.6645 52.0044 26.806 51.9763 26.9379 51.9216C27.0699 51.867 27.1898 51.7868 27.2908 51.6858C30.7792 48.1975 31.0175 48.1975 30.8225 47.3525L28.8075 39.2817L30.5408 37.5483C30.7166 37.3707 30.8256 37.1378 30.8493 36.889C30.873 36.6402 30.8099 36.3909 30.6708 36.1833L28.8292 33.3992L29.8475 33.865C30.7982 34.3023 31.6018 35.0057 32.1613 35.8901C32.7208 36.7745 33.0121 37.8019 33 38.8483V50.9167C33 51.204 33.1141 51.4795 33.3173 51.6827C33.5205 51.8859 33.796 52 34.0833 52C34.3707 52 34.6462 51.8859 34.8494 51.6827C35.0525 51.4795 35.1667 51.204 35.1667 50.9167V38.8483C35.1665 37.3932 34.7476 35.9688 33.96 34.7452C33.1724 33.5215 32.0494 32.5504 30.725 31.9475L29.75 31.5033V30.3333H51.4167C51.704 30.3333 51.9795 30.2192 52.1827 30.016C52.3859 29.8129 52.5 29.5373 52.5 29.25V24.9167C52.5 24.6293 52.3859 24.3538 52.1827 24.1506C51.9795 23.9475 51.704 23.8333 51.4167 23.8333ZM14.5833 2.16667H49.25V23.8333H47.0833V20.5833C47.0833 20.296 46.9692 20.0205 46.766 19.8173C46.5629 19.6141 46.2873 19.5 46 19.5H39.5C39.2127 19.5 38.9371 19.6141 38.734 19.8173C38.5308 20.0205 38.4167 20.296 38.4167 20.5833V23.8333H29.75V20.5833C29.7478 18.7421 29.319 16.9265 28.4973 15.2788C27.6755 13.6312 26.4832 12.1964 25.0137 11.087C23.5443 9.97754 21.8378 9.22371 20.0281 8.88461C18.2184 8.5455 16.3547 8.63035 14.5833 9.1325V2.16667ZM44.9167 23.8333H40.5833V21.6667H44.9167V23.8333ZM12.5142 36.595L11.3333 31.4167L13.1533 30.5825L16.1867 34.3742L12.5142 36.595ZM18.6783 18.5358C20.1842 19.6192 21.43 19.5 23.25 19.5V21.6667C23.25 23.1033 22.6793 24.481 21.6635 25.4968C20.6477 26.5126 19.2699 27.0833 17.8333 27.0833C16.3967 27.0833 15.019 26.5126 14.0032 25.4968C12.9874 24.481 12.4167 23.1033 12.4167 21.6667V19.5C14.8758 19.5 16.4792 19.6733 18.6783 18.5358ZM17.8333 32.9333C14.1175 28.2858 14.5833 29.0117 14.5833 28.5025C15.5962 28.9942 16.7074 29.2496 17.8333 29.2496C18.9592 29.2496 20.0705 28.9942 21.0833 28.5025C21.0833 29.0225 21.5492 28.2858 17.8333 32.9333ZM19.4583 34.3742L22.4917 30.5825L24.3333 31.4167L23.1742 36.595L19.4583 34.3742ZM23.25 28.5567V26.9642C25.7633 24.3858 25.4167 21.8075 25.4167 18.4167C25.4167 16.4775 22.2858 17.7883 20.6067 17.16C20.7169 17.0697 20.8083 16.9585 20.8756 16.8328C20.9429 16.7072 20.9848 16.5695 20.9989 16.4277C21.0129 16.2858 20.9989 16.1426 20.9577 16.0062C20.9164 15.8697 20.8487 15.7428 20.7583 15.6325C20.668 15.5222 20.5568 15.4309 20.4312 15.3636C20.3055 15.2963 20.1678 15.2544 20.026 15.2403C19.8842 15.2262 19.7409 15.2402 19.6045 15.2815C19.4681 15.3228 19.3411 15.3905 19.2308 15.4808C15.5475 19.1642 10.25 15.8167 10.25 18.4167C10.25 21.8725 9.90333 24.3967 12.4167 26.9642V28.5567L8.08333 30.5175V20.5833C8.08333 17.9975 9.11056 15.5175 10.939 13.689C12.7675 11.8606 15.2475 10.8333 17.8333 10.8333C20.4192 10.8333 22.8991 11.8606 24.7276 13.689C26.5561 15.5175 27.5833 17.9975 27.5833 20.5833V30.5175L23.25 28.5567ZM50.3333 28.1667H29.75V26H50.3333V28.1667Z" fill="#E04C26"/>
</svg>
