<svg width="69" height="74" viewBox="0 0 69 74" fill="none" xmlns="http://www.w3.org/2000/svg">
<g clip-path="url(#clip0_5277_70927)">
<path d="M54.4834 46.3316C55.3792 45.2743 55.9694 43.9607 56.1824 42.5504C56.3954 41.1401 56.2219 39.6938 55.683 38.3872C55.1442 37.0807 54.2631 35.9701 53.147 35.1906C52.0309 34.4111 50.7277 33.9961 49.3959 33.9961C48.064 33.9961 46.7608 34.4111 45.6447 35.1906C44.5286 35.9701 43.6475 37.0807 43.1087 38.3872C42.5698 39.6938 42.3963 41.1401 42.6093 42.5504C42.8223 43.9607 43.4125 45.2743 44.3084 46.3316C42.8443 46.4299 41.4334 46.9571 40.2292 47.8557C40.8998 46.7421 41.2781 45.4551 41.3244 44.1302C41.3706 42.8053 41.0831 41.4916 40.492 40.3272C39.901 39.1628 39.0283 38.1909 37.9657 37.5137C36.9032 36.8366 35.6901 36.4792 34.4542 36.4792C33.2183 36.4792 32.0052 36.8366 30.9427 37.5137C29.8801 38.1909 29.0074 39.1628 28.4163 40.3272C27.8253 41.4916 27.5377 42.8053 27.584 44.1302C27.6303 45.4551 28.0086 46.7421 28.6792 47.8557C27.5012 46.9738 26.1241 46.4474 24.6917 46.3316C25.5875 45.2743 26.1777 43.9607 26.3907 42.5504C26.6037 41.1401 26.4302 39.6938 25.8913 38.3872C25.3525 37.0807 24.4715 35.9701 23.3553 35.1906C22.2392 34.4111 20.936 33.9961 19.6042 33.9961C18.2723 33.9961 16.9692 34.4111 15.853 35.1906C14.7369 35.9701 13.8559 37.0807 13.317 38.3872C12.7782 39.6938 12.6047 41.1401 12.8176 42.5504C13.0306 43.9607 13.6209 45.2743 14.5167 46.3316C12.478 46.4693 10.5651 47.4363 9.16829 49.0352C7.77147 50.6341 6.99598 52.7445 7.00002 54.9357V62.3107C7.00002 62.6367 7.12074 62.9494 7.33562 63.1799C7.55051 63.4104 7.84196 63.5399 8.14585 63.5399H21.8958V64.7691C21.8958 65.0951 22.0166 65.4077 22.2315 65.6382C22.4463 65.8687 22.7378 65.9982 23.0417 65.9982H45.9584C46.2622 65.9982 46.5537 65.8687 46.7686 65.6382C46.9835 65.4077 47.1042 65.0951 47.1042 64.7691V63.5399H60.8542C61.1581 63.5399 61.4495 63.4104 61.6644 63.1799C61.8793 62.9494 62 62.6367 62 62.3107V54.9357C62.0041 52.7445 61.2286 50.6341 59.8317 49.0352C58.4349 47.4363 56.522 46.4693 54.4834 46.3316ZM49.3959 36.4982C50.3023 36.4982 51.1885 36.7866 51.9422 37.3268C52.6959 37.8671 53.2834 38.635 53.6303 39.5334C53.9772 40.4318 54.068 41.4204 53.8911 42.3741C53.7143 43.3278 53.2777 44.2039 52.6368 44.8915C51.9958 45.5791 51.1791 46.0474 50.29 46.2371C49.4009 46.4268 48.4794 46.3294 47.6419 45.9573C46.8044 45.5852 46.0886 44.955 45.5849 44.1465C45.0813 43.3379 44.8125 42.3873 44.8125 41.4149C44.8125 40.1109 45.2954 38.8603 46.1549 37.9383C47.0145 37.0162 48.1803 36.4982 49.3959 36.4982ZM34.5 38.9566C35.4065 38.9566 36.2927 39.2449 37.0464 39.7852C37.8001 40.3254 38.3876 41.0933 38.7345 41.9917C39.0814 42.8901 39.1721 43.8787 38.9953 44.8324C38.8184 45.7862 38.3819 46.6622 37.7409 47.3498C37.0999 48.0375 36.2833 48.5057 35.3942 48.6954C34.5051 48.8851 33.5835 48.7878 32.7461 48.4156C31.9086 48.0435 31.1927 47.4133 30.6891 46.6048C30.1855 45.7962 29.9167 44.8457 29.9167 43.8732C29.9167 42.5693 30.3996 41.3187 31.2591 40.3966C32.1187 39.4746 33.2844 38.9566 34.5 38.9566ZM19.6042 36.4982C20.5107 36.4982 21.3968 36.7866 22.1505 37.3268C22.9043 37.8671 23.4917 38.635 23.8386 39.5334C24.1855 40.4318 24.2763 41.4204 24.0994 42.3741C23.9226 43.3278 23.4861 44.2039 22.8451 44.8915C22.2041 45.5791 21.3874 46.0474 20.4983 46.2371C19.6093 46.4268 18.6877 46.3294 17.8502 45.9573C17.0127 45.5852 16.2969 44.955 15.7933 44.1465C15.2897 43.3379 15.0208 42.3873 15.0208 41.4149C15.0208 40.1109 15.5037 38.8603 16.3633 37.9383C17.2228 37.0162 18.3886 36.4982 19.6042 36.4982ZM9.29168 61.0816V54.9357C9.29168 53.3058 9.89529 51.7425 10.9697 50.59C12.0441 49.4374 13.5014 48.7899 15.0208 48.7899C24.9094 48.7899 25.1729 48.5809 26.7886 49.4659C25.337 50.1254 24.0988 51.2292 23.2286 52.6392C22.3584 54.0492 21.8949 55.703 21.8958 57.3941V61.0816H9.29168ZM44.8125 63.5399H24.1875V57.3941C24.1875 55.7641 24.7911 54.2009 25.8655 53.0483C26.94 51.8957 28.3972 51.2482 29.9167 51.2482H39.0834C40.6028 51.2482 42.0601 51.8957 43.1345 53.0483C44.2089 54.2009 44.8125 55.7641 44.8125 57.3941V63.5399ZM59.7084 61.0816H47.1042V57.3941C47.1052 55.703 46.6416 54.0492 45.7714 52.6392C44.9012 51.2292 43.663 50.1254 42.2115 49.4659C43.8844 48.5564 44.1709 48.7899 53.9792 48.7899C55.4987 48.7899 56.9559 49.4374 58.0303 50.59C59.1047 51.7425 59.7084 53.3058 59.7084 54.9357V61.0816Z" fill="url(#paint0_linear_5277_70927)"/>
<path d="M13.2678 33.8573C14.0012 34.3367 14.1387 34.0417 18.7335 31.5833H36.7918C37.0957 31.5833 37.3871 31.4538 37.602 31.2233C37.8169 30.9928 37.9376 30.6802 37.9376 30.3542V26.6667H50.2668C54.9647 29.1865 55.022 29.4077 55.7324 28.9406C56.4428 28.4735 56.271 29.42 56.271 8.22917C56.271 7.90317 56.1502 7.59053 55.9354 7.36001C55.7205 7.1295 55.429 7 55.1251 7H32.2085C31.9046 7 31.6131 7.1295 31.3982 7.36001C31.1833 7.59053 31.0626 7.90317 31.0626 8.22917V11.9167H13.8751C13.5712 11.9167 13.2798 12.0462 13.0649 12.2767C12.85 12.5072 12.7293 12.8198 12.7293 13.1458C12.7293 34.3244 12.5001 33.341 13.2678 33.8573ZM33.3543 9.45833H53.9793V25.9046C50.7824 24.2083 50.9085 24.2083 50.5418 24.2083H33.3543V9.45833ZM15.021 14.375H31.0626V16.8333H18.4585C18.1546 16.8333 17.8631 16.9628 17.6482 17.1933C17.4333 17.4239 17.3126 17.7365 17.3126 18.0625C17.3126 18.3885 17.4333 18.7011 17.6482 18.9317C17.8631 19.1622 18.1546 19.2917 18.4585 19.2917H31.0626V25.4375C31.0626 25.7635 31.1833 26.0761 31.3982 26.3067C31.6131 26.5372 31.9046 26.6667 32.2085 26.6667H35.646V29.125C16.9574 29.125 18.298 29.125 17.9428 29.2602L15.021 30.8212V14.375Z" fill="url(#paint1_linear_5277_70927)"/>
<path d="M36.7913 14.3763H50.5413C50.8452 14.3763 51.1367 14.2468 51.3516 14.0163C51.5665 13.7858 51.6872 13.4731 51.6872 13.1471C51.6872 12.8211 51.5665 12.5085 51.3516 12.278C51.1367 12.0475 50.8452 11.918 50.5413 11.918H36.7913C36.4874 11.918 36.196 12.0475 35.9811 12.278C35.7662 12.5085 35.6455 12.8211 35.6455 13.1471C35.6455 13.4731 35.7662 13.7858 35.9811 14.0163C36.196 14.2468 36.4874 14.3763 36.7913 14.3763Z" fill="url(#paint2_linear_5277_70927)"/>
<path d="M36.7913 20.5208H45.958C46.2619 20.5208 46.5534 20.3913 46.7682 20.1608C46.9831 19.9303 47.1038 19.6177 47.1038 19.2917C47.1038 18.9657 46.9831 18.653 46.7682 18.4225C46.5534 18.192 46.2619 18.0625 45.958 18.0625H36.7913C36.4874 18.0625 36.196 18.192 35.9811 18.4225C35.7662 18.653 35.6455 18.9657 35.6455 19.2917C35.6455 19.6177 35.7662 19.9303 35.9811 20.1608C36.196 20.3913 36.4874 20.5208 36.7913 20.5208Z" fill="url(#paint3_linear_5277_70927)"/>
<path d="M27.625 25.4388C27.9289 25.4388 28.2203 25.3093 28.4352 25.0788C28.6501 24.8483 28.7708 24.5356 28.7708 24.2096C28.7708 23.8836 28.6501 23.571 28.4352 23.3405C28.2203 23.11 27.9289 22.9805 27.625 22.9805H18.4583C18.1544 22.9805 17.863 23.11 17.6481 23.3405C17.4332 23.571 17.3125 23.8836 17.3125 24.2096C17.3125 24.5356 17.4332 24.8483 17.6481 25.0788C17.863 25.3093 18.1544 25.4388 18.4583 25.4388H27.625Z" fill="url(#paint4_linear_5277_70927)"/>
</g>
<defs>
<linearGradient id="paint0_linear_5277_70927" x1="23.3036" y1="31.4609" x2="55.9035" y2="55.8559" gradientUnits="userSpaceOnUse">
<stop stop-color="#00B1AC"/>
<stop offset="1" stop-color="#00539F"/>
</linearGradient>
<linearGradient id="paint1_linear_5277_70927" x1="25.6192" y1="4.85711" x2="52.6279" y2="23.8087" gradientUnits="userSpaceOnUse">
<stop stop-color="#00B1AC"/>
<stop offset="1" stop-color="#00539F"/>
</linearGradient>
<linearGradient id="paint2_linear_5277_70927" x1="40.4007" y1="11.7232" x2="42.0356" y2="16.3683" gradientUnits="userSpaceOnUse">
<stop stop-color="#00B1AC"/>
<stop offset="1" stop-color="#00539F"/>
</linearGradient>
<linearGradient id="paint3_linear_5277_70927" x1="39.0421" y1="17.8678" x2="41.1119" y2="22.0684" gradientUnits="userSpaceOnUse">
<stop stop-color="#00B1AC"/>
<stop offset="1" stop-color="#00539F"/>
</linearGradient>
<linearGradient id="paint4_linear_5277_70927" x1="20.7091" y1="22.7857" x2="22.7789" y2="26.9863" gradientUnits="userSpaceOnUse">
<stop stop-color="#00B1AC"/>
<stop offset="1" stop-color="#00539F"/>
</linearGradient>
<clipPath id="clip0_5277_70927">
<rect width="55" height="59" fill="white" transform="translate(7 7)"/>
</clipPath>
</defs>
</svg>
